<?xml version="1.0" encoding="UTF-8"?>
<svg version="1.1" xmlns="http://www.w3.org/2000/svg" width="512" height="512">
<path d="M0 0 C0 24.09 0 48.18 0 73 C4.95 73 9.9 73 15 73 C18.43410227 73.28743587 21.73326763 73.61200822 25.125 74.125 C26.00043457 74.25479248 26.87586914 74.38458496 27.77783203 74.51831055 C54.66006326 78.82608382 80.23624337 89.69153857 102 106 C102.87398437 106.6496875 103.74796875 107.299375 104.6484375 107.96875 C124.18684696 123.2239646 139.73152283 141.98831814 151 164 C151.31807617 164.61697754 151.63615234 165.23395508 151.96386719 165.86962891 C172.55498807 206.35259018 175.09538984 254.1565901 161.29785156 297.18994141 C153.28368276 321.46451833 140.51665699 343.12964366 122.58154297 361.38330078 C120.92157796 363.08016529 119.29093199 364.80243954 117.66015625 366.52734375 C95.84395249 389.31439331 67.56853309 403.81117656 37 411 C36.24154785 411.17934082 35.4830957 411.35868164 34.70166016 411.54345703 C19.59854233 414.89859483 4.04226659 414.35027301 -11.33984375 414.203125 C-12.03802216 414.19872406 -12.73620056 414.19432312 -13.45553589 414.18978882 C-17.08663134 414.13748875 -20.46684437 413.85181527 -24 413 C-22.59202214 404.42340341 -20.67527727 395.98717637 -18.59594727 387.55322266 C-18.23627771 386.0845857 -17.88256069 384.61447981 -17.53442383 383.14306641 C-17.0263262 380.99576876 -16.50159036 378.85318465 -15.97265625 376.7109375 C-15.66593994 375.44556152 -15.35922363 374.18018555 -15.04321289 372.87646484 C-14.69895264 371.92723145 -14.35469238 370.97799805 -14 370 C-10.99603415 368.99867805 -9.17939809 368.92157026 -6.0546875 369.0078125 C30.02069259 369.71251343 61.8522054 358.48235229 88.38061523 333.66186523 C111.87695835 310.86453923 124.40515846 278.64184641 125.28613281 246.20166016 C125.67552059 210.91880085 112.44851744 177.18467361 87.8984375 151.80859375 C64.34606214 128.45663002 33.17971298 120.06473457 1 117 C0.67 149.34 0.34 181.68 0 215 C-4.0498325 211.528715 -7.89197637 208.23336587 -11.64489746 204.50900269 C-12.49738068 203.66511993 -13.34986389 202.82123718 -14.22817993 201.95178223 C-15.1396579 201.04456421 -16.05113586 200.13734619 -16.99023438 199.20263672 C-17.97792805 198.22286072 -18.96579715 197.24326154 -19.9538269 196.26382446 C-23.17082141 193.07281262 -26.38257766 189.87655666 -29.59375 186.6796875 C-30.70292072 185.57588237 -31.81209739 184.47208322 -32.92127991 183.36828995 C-37.53032588 178.78081926 -42.13795448 174.19193281 -46.74187469 169.59931755 C-53.33051938 163.02696422 -59.92755405 156.46329341 -66.53637075 149.91122234 C-71.19146343 145.29474511 -75.83701167 140.66880207 -80.47548532 136.03562748 C-83.24423427 133.27053753 -86.01703873 130.50981687 -88.8000946 127.75912094 C-91.41134252 125.17781319 -94.01061869 122.58503991 -96.601017 119.98281479 C-98.01099139 118.57251259 -99.43338692 117.17466337 -100.85604858 115.77716064 C-101.68597321 114.93891754 -102.51589783 114.10067444 -103.37097168 113.23703003 C-104.10023613 112.51107573 -104.82950058 111.78512142 -105.58086395 111.0371685 C-107 109 -107 109 -106.98304749 107.01438713 C-105.67937143 104.34299199 -104.00657735 102.63508379 -101.90026855 100.53277588 C-101.01685287 99.64379105 -100.13343719 98.75480621 -99.22325134 97.83888245 C-98.23686695 96.86152039 -97.2503355 95.88430672 -96.26367188 94.90722656 C-95.23003976 93.8728036 -94.19706088 92.83772755 -93.16468811 91.80204773 C-90.35957339 88.99179714 -87.54521247 86.19097586 -84.72898293 83.39186954 C-81.78687213 80.46478223 -78.85285525 77.52960349 -75.91784668 74.59539795 C-70.98978606 69.67103006 -66.05612156 64.75233572 -61.11865234 59.83740234 C-54.77233063 53.51998711 -48.43533038 47.19330643 -42.10121918 40.86365128 C-36.66416796 35.43057352 -31.22285929 30.0017655 -25.78086281 24.57364178 C-24.0270672 22.82395199 -22.27386368 21.07367055 -20.52073669 19.32331085 C-17.77193805 16.57939121 -15.02050627 13.83813901 -12.26696587 11.09897804 C-11.25383324 10.09038276 -10.24155313 9.08093034 -9.23016548 8.07058525 C-7.85567281 6.69782781 -6.47780328 5.32845393 -5.09973145 3.95928955 C-4.32764595 3.19017872 -3.55556046 2.42106789 -2.76007843 1.62865067 C-1 0 -1 0 0 0 Z " fill="#CBA8F7" transform="translate(256,12)"/>
<path d="M0 0 C2.81263587 1.28668166 4.91177902 2.64632478 7.13208008 4.79394531 C7.71560745 5.35502991 8.29913483 5.9161145 8.90034485 6.49420166 C9.82559212 7.40199371 9.82559212 7.40199371 10.76953125 8.328125 C11.40992844 8.95475037 12.05032562 9.58137573 12.71012878 10.22698975 C14.05857875 11.55220673 15.40408354 12.88042631 16.74682617 14.21142578 C18.80721827 16.24478756 20.89031306 18.25290656 22.97460938 20.26171875 C24.28272961 21.55319053 25.58942053 22.84611199 26.89453125 24.140625 C27.52148392 24.73772278 28.14843658 25.33482056 28.79438782 25.95001221 C30.40248641 27.57489704 31.79511611 29.05711272 33 31 C32.94200425 35.77015021 30.96883243 39.87255773 29.1875 44.25 C17.55792144 74.36511392 18.53476197 107.7338072 31.3125 137.375 C43.86671113 165.1109685 66.51954039 189.3401586 94.89453125 201.2109375 C95.58933594 201.47132813 96.28414063 201.73171875 97 202 C96.42149599 207.82533391 95.25496545 213.08220769 93.49609375 218.65625 C93.2533522 219.44398804 93.01061066 220.23172607 92.76051331 221.04333496 C91.99241961 223.53087513 91.21513441 226.01542792 90.4375 228.5 C89.91149628 230.19772683 89.38609977 231.89564193 88.86132812 233.59375 C87.58122518 237.73137524 86.29287734 241.86634942 85 246 C78.95739045 245.17637845 74.5218918 243.02007516 69.1875 240.1875 C67.80123413 239.45370117 67.80123413 239.45370117 66.38696289 238.70507812 C53.16337141 231.54821988 41.20339235 222.96204634 30.46679688 212.43164062 C28.92789118 210.92961949 27.36372956 209.45718067 25.796875 207.984375 C12.95335484 195.73955813 3.05714143 181.77578058 -5 166 C-5.48509033 165.05060547 -5.48509033 165.05060547 -5.97998047 164.08203125 C-17.88987544 140.42079597 -23.4580545 114.74798838 -23.3125 88.3125 C-23.31067719 87.61822906 -23.30885437 86.92395813 -23.30697632 86.20864868 C-23.2559311 74.59677509 -22.49520435 63.36349462 -20 52 C-19.83371094 51.22479004 -19.66742188 50.44958008 -19.49609375 49.65087891 C-15.61858497 32.14105452 -9.04064318 15.48210144 0 0 Z " fill="#CBA8F7" transform="translate(108,168)"/>
</svg>
