<?xml version="1.0" encoding="UTF-8"?>
<svg version="1.1" xmlns="http://www.w3.org/2000/svg" width="512" height="512">
<path d="M0 0 C22.39759607 19.2402257 36.5759821 43.26373528 40.3125 72.6875 C40.55274424 77.01978012 40.54781935 81.3340395 40.5078125 85.671875 C40.50356766 87.44428558 40.50356766 87.44428558 40.49923706 89.25250244 C40.48815209 92.98094341 40.4630698 96.70913315 40.4375 100.4375 C40.42745509 102.9843715 40.4183319 105.53124681 40.41015625 108.078125 C40.38825117 114.28133394 40.35489218 120.48439901 40.3125 126.6875 C41.39966309 126.66393433 41.39966309 126.66393433 42.50878906 126.63989258 C45.85994349 126.57671857 49.21097197 126.53825114 52.5625 126.5 C53.70203125 126.47486328 54.8415625 126.44972656 56.015625 126.42382812 C70.25046083 126.3025085 81.79189206 129.58925354 92.5 139.1875 C101.26115057 148.39383098 104.4652971 159.53246289 104.45294189 171.87724304 C104.45739858 173.26964265 104.45739858 173.26964265 104.4619453 174.69017154 C104.47062021 177.80216451 104.47213953 180.91411895 104.47363281 184.02612305 C104.47826185 186.25691307 104.48328663 188.48770229 104.48867798 190.7184906 C104.50179604 196.7806558 104.50824584 202.84280992 104.51268864 208.9049871 C104.51562044 212.69332576 104.51972546 216.48166141 104.52419281 220.26999855 C104.53630019 230.76751769 104.54668262 241.26503504 104.5500679 251.76256084 C104.55028747 252.43398498 104.55050703 253.10540912 104.55073325 253.79717945 C104.55095153 254.4701725 104.55116981 255.14316555 104.5513947 255.83655232 C104.55183816 257.20019829 104.55228472 258.56384426 104.55273438 259.92749023 C104.5529558 260.60389979 104.55317723 261.28030935 104.55340537 261.97721616 C104.55735115 272.93093575 104.57479954 283.88458873 104.5980939 294.83828261 C104.62184001 306.0956738 104.63401355 317.35303278 104.63543582 328.61045295 C104.63648329 334.9264595 104.64237895 341.24237207 104.66025543 347.55835533 C104.67675007 353.50174046 104.67888474 359.4449611 104.67011642 365.38836098 C104.66934679 367.56595933 104.673679 369.74356657 104.68357468 371.92114258 C104.6963225 374.90190246 104.69040178 377.88208227 104.67999268 380.86283875 C104.69207728 382.14473454 104.69207728 382.14473454 104.70440602 383.45252723 C104.60567229 395.6041227 99.84328308 406.01870187 91.6875 414.9375 C81.38793574 424.66596031 68.83822415 426.99966174 55.21257019 426.94819641 C54.12712223 426.95202196 53.04167427 426.95584751 51.92333394 426.95978898 C48.30325017 426.97006894 44.68332648 426.9661363 41.06323242 426.9621582 C38.4607173 426.96650746 35.85820347 426.97169132 33.25569153 426.97764587 C26.93021148 426.99036553 20.60477393 426.99218995 14.27928325 426.98984561 C9.13466846 426.98805908 3.99006652 426.98981927 -1.15454674 426.99407005 C-2.25488975 426.99496284 -2.25488975 426.99496284 -3.37746191 426.99587366 C-4.86794133 426.99708547 -6.35842075 426.99829961 -7.84890016 426.99951603 C-21.8127383 427.01038123 -35.77655226 427.00823403 -49.74039175 427.00213119 C-62.49666653 426.99696402 -75.25286489 427.00821398 -88.00912455 427.02722941 C-101.12665859 427.04663251 -114.24415653 427.05485941 -127.36170501 427.05110615 C-134.71839932 427.04919772 -142.07502863 427.05164661 -149.4317112 427.06582069 C-156.35188068 427.07901946 -163.27189515 427.07644094 -170.19206429 427.06340981 C-172.72680971 427.06104761 -175.26156593 427.06376584 -177.79629898 427.07203293 C-181.26658146 427.08253211 -184.73635463 427.07437375 -188.20661926 427.0617218 C-189.20051833 427.06909609 -190.19441741 427.07647037 -191.21843463 427.08406812 C-204.63548142 426.98174204 -215.83817755 423.18403759 -225.875 414.1875 C-234.63615057 404.98116902 -237.8402971 393.84253711 -237.82794189 381.49775696 C-237.83091302 380.56949055 -237.83388414 379.64122415 -237.8369453 378.68482846 C-237.84562021 375.57283549 -237.84713953 372.46088105 -237.84863281 369.34887695 C-237.85326185 367.11808693 -237.85828663 364.88729771 -237.86367798 362.6565094 C-237.87679604 356.5943442 -237.88324584 350.53219008 -237.88768864 344.4700129 C-237.89062044 340.68167424 -237.89472546 336.89333859 -237.89919281 333.10500145 C-237.91130019 322.60748231 -237.92168262 312.10996496 -237.9250679 301.61243916 C-237.92528747 300.94101502 -237.92550703 300.26959088 -237.92573325 299.57782055 C-237.92595153 298.9048275 -237.92616981 298.23183445 -237.9263947 297.53844768 C-237.92683816 296.17480171 -237.92728472 294.81115574 -237.92773438 293.44750977 C-237.9279558 292.77110021 -237.92817723 292.09469065 -237.92840537 291.39778384 C-237.93235115 280.44406425 -237.94979954 269.49041127 -237.9730939 258.53671739 C-237.99684001 247.2793262 -238.00901355 236.02196722 -238.01043582 224.76454705 C-238.01148329 218.4485405 -238.01737895 212.13262793 -238.03525543 205.81664467 C-238.05175007 199.87325954 -238.05388474 193.9300389 -238.04511642 187.98663902 C-238.04434679 185.80904067 -238.048679 183.63143343 -238.05857468 181.45385742 C-238.0713225 178.47309754 -238.06540178 175.49291773 -238.05499268 172.51216125 C-238.06707728 171.23026546 -238.06707728 171.23026546 -238.07940602 169.92247277 C-237.98067229 157.7708773 -233.21828308 147.35629813 -225.0625 138.4375 C-213.99193552 127.98079091 -200.66083951 126.35335123 -186.125 126.5625 C-184.92552734 126.57152344 -183.72605469 126.58054688 -182.49023438 126.58984375 C-179.55577691 126.61322588 -176.62174766 126.6459972 -173.6875 126.6875 C-173.70082367 125.73934418 -173.70082367 125.73934418 -173.7144165 124.77203369 C-173.80414151 118.08639744 -173.86374261 111.40093686 -173.90722656 104.71484375 C-173.92712245 102.23235101 -173.95424896 99.74990373 -173.98925781 97.26757812 C-174.47987763 61.53891173 -166.53555552 33.32621267 -141.4375 7.0625 C-127.25749784 -6.76349379 -109.6947337 -15.36019333 -90.6875 -20.3125 C-89.75421875 -20.55871094 -88.8209375 -20.80492188 -87.859375 -21.05859375 C-57.52573641 -27.48897035 -24.1306824 -19.16763424 0 0 Z M-108.6875 36.6875 C-109.40421875 37.29207031 -110.1209375 37.89664063 -110.859375 38.51953125 C-124.66488991 51.22809633 -128.42413542 66.58058339 -130.6875 84.6875 C-130.6875 98.5475 -130.6875 112.4075 -130.6875 126.6875 C-88.4475 126.6875 -46.2075 126.6875 -2.6875 126.6875 C-0.50458924 80.10098883 -0.50458924 80.10098883 -19.6875 41.6875 C-20.24050781 41.02234375 -20.79351562 40.3571875 -21.36328125 39.671875 C-32.7459218 27.13119906 -49.12287534 21.73539695 -65.55175781 20.75097656 C-81.7187321 20.27047664 -96.48205324 26.35224266 -108.6875 36.6875 Z M-99 249 C-107.16298658 259.2904505 -109.78668943 270.76158886 -108.6875 283.6875 C-106.41512678 294.91329584 -100.29495942 305.23760239 -90.6875 311.6875 C-79.75685322 318.02692196 -69.06602254 320.58594032 -56.46484375 318.03515625 C-45.46093537 314.72688444 -36.09082443 308.27986161 -30.28515625 298.26953125 C-24.43857424 287.06781905 -22.54321292 275.76694201 -26.25 263.4375 C-30.83865056 251.31958478 -38.67491717 243.13347794 -50.296875 237.72265625 C-67.52217427 230.26398908 -86.43563626 235.44455413 -99 249 Z " fill="#CBA6F6" transform="translate(322.6875,43.3125)"/>
</svg>
