<?xml version="1.0" encoding="UTF-8"?>
<svg version="1.1" xmlns="http://www.w3.org/2000/svg" width="512" height="512">
<path d="M0 0 C1.3002071 -0.00623996 2.6004142 -0.01247993 3.94002151 -0.01890898 C7.51977559 -0.03549313 11.09909907 -0.02740636 14.67885399 -0.0149641 C18.55078311 -0.00587077 22.42264095 -0.01990446 26.29455566 -0.03088379 C33.86809295 -0.04862813 41.44147125 -0.04484732 49.01501465 -0.03323323 C55.17266133 -0.02418304 61.33026361 -0.02298175 67.48791504 -0.02732849 C68.36581357 -0.02794142 69.24371211 -0.02855436 70.14821362 -0.02918586 C71.93189972 -0.03046482 73.7155858 -0.03176168 75.49927187 -0.03307623 C92.2071574 -0.04447006 108.914955 -0.03138714 125.6228261 -0.00987476 C139.94488381 0.00799513 154.26681182 0.00489069 168.58886719 -0.0135498 C185.23881031 -0.03497769 201.88867645 -0.04337153 218.53863144 -0.03110075 C220.31558989 -0.02982661 222.09254836 -0.02856913 223.86950684 -0.02732849 C224.7437012 -0.02671139 225.61789557 -0.02609429 226.51858068 -0.02545848 C232.66560423 -0.02201134 238.81257877 -0.0278202 244.95959473 -0.0372467 C252.45540352 -0.04848941 259.95104485 -0.04537904 267.44683456 -0.02412373 C271.26802023 -0.01364375 275.08892715 -0.00943895 278.91011047 -0.02272034 C283.05945473 -0.03692373 287.20810112 -0.01991345 291.35742188 0 C292.55519886 -0.00892289 293.75297585 -0.01784577 294.9870491 -0.02703905 C306.26290197 0.07771189 315.18274074 3.04232672 323.67871094 10.50793457 C324.28457031 11.00937988 324.89042969 11.5108252 325.51464844 12.02746582 C331.64170559 17.52576383 336.05065683 25.41263545 337.67871094 33.50793457 C337.77097742 35.31539712 337.80955498 37.12591045 337.81293201 38.9357233 C337.81738986 40.0446236 337.8218477 41.1535239 337.82644063 42.29602724 C337.82616409 44.12327756 337.82616409 44.12327756 337.82588196 45.98744202 C337.82955865 47.28166814 337.83323533 48.57589427 337.83702344 49.90933937 C337.84703545 53.50476725 337.85075895 57.10017843 337.85341275 60.69561827 C337.85731821 64.57242073 337.86689643 68.44921 337.87562561 72.32600403 C337.89538392 81.69043053 337.90545576 91.0548581 337.9143534 100.41930023 C337.91873763 104.83053352 337.92410412 109.24176562 337.92934227 113.65299797 C337.94635447 128.31955624 337.96084802 142.98611377 337.96809101 157.6526804 C337.97000087 161.45835432 337.97192121 165.26402824 337.97387695 169.06970215 C337.97436069 170.01557023 337.97484443 170.9614383 337.97534283 171.93596905 C337.98364084 187.25398865 338.00897392 202.5719301 338.04145763 217.88991559 C338.07454502 233.62099954 338.09254132 249.3520438 338.09573525 265.08316272 C338.09789887 273.91377829 338.10662574 282.74427991 338.13219643 291.57486153 C338.15392643 299.09643422 338.16194258 306.61786529 338.15222964 314.13946582 C338.14769148 317.97479676 338.1495426 321.80983565 338.16899109 325.64512634 C338.18992842 329.81013579 338.17961648 333.97450041 338.16645813 338.13954163 C338.182912 339.94336936 338.182912 339.94336936 338.19969827 341.78363806 C338.11371474 353.07811793 335.15646076 361.99814663 327.67871094 370.50793457 C327.17726563 371.11379395 326.67582031 371.71965332 326.15917969 372.34387207 C320.66088167 378.47092922 312.77401006 382.87988046 304.67871094 384.50793457 C302.87124839 384.60020106 301.06073506 384.63877861 299.2509222 384.64215565 C297.58757175 384.64884241 297.58757175 384.64884241 295.89061826 384.65566427 C294.67245139 384.6554799 293.45428451 384.65529554 292.19920349 384.65510559 C290.90497737 384.65878228 289.61075124 384.66245897 288.27730614 384.66624707 C284.68187826 384.67625908 281.08646708 384.67998258 277.49102724 384.68263638 C273.61422478 384.68654184 269.73743551 384.69612006 265.86064148 384.70484924 C256.49621498 384.72460756 247.13178741 384.73467939 237.76734528 384.74357703 C233.35611198 384.74796126 228.94487989 384.75332775 224.53364754 384.7585659 C209.86708926 384.7755781 195.20053174 384.79007166 180.53396511 384.79731464 C176.72829118 384.7992245 172.92261726 384.80114484 169.11694336 384.80310059 C167.69814124 384.8038262 167.69814124 384.8038262 166.25067646 384.80456647 C150.93265686 384.81286447 135.6147154 384.83819756 120.29672991 384.87068126 C104.56564597 384.90376865 88.83460171 384.92176495 73.10348278 384.92495888 C64.27286722 384.9271225 55.4423656 384.93584937 46.61178398 384.96142006 C39.09021129 384.98315007 31.56878021 384.99116621 24.04717969 384.98145328 C20.21184875 384.97691512 16.37680986 384.97876623 12.54151917 384.99821472 C8.37650971 385.01915205 4.2121451 385.00884011 0.04710388 384.99568176 C-1.75672385 385.01213563 -1.75672385 385.01213563 -3.59699255 385.0289219 C-14.89147242 384.94293838 -23.81150113 381.9856844 -32.32128906 374.50793457 C-32.92714844 374.00648926 -33.53300781 373.50504395 -34.15722656 372.98840332 C-40.54693232 367.25440973 -45.9004706 358.26523049 -46.44433689 349.53209305 C-46.4434151 348.83521755 -46.44249331 348.13834206 -46.44154358 347.42034912 C-46.44291824 346.61550583 -46.44429291 345.81066254 -46.44570923 344.98143005 C-46.44031631 343.67052147 -46.44031631 343.67052147 -46.43481445 342.33312988 C-46.43496048 341.40595657 -46.43510651 340.47878326 -46.43525696 339.52351379 C-46.43456068 336.4610052 -46.42678155 333.39855753 -46.41894531 330.33605957 C-46.41708012 328.21185337 -46.4156567 326.08764673 -46.41465759 323.96343994 C-46.41084037 318.37390962 -46.40101684 312.7844053 -46.38995361 307.19488525 C-46.37792343 300.48764076 -46.37333347 293.78038757 -46.36750031 287.07313538 C-46.35780469 276.88471702 -46.33864254 266.69635573 -46.32128906 256.50793457 C-32.13128906 256.50793457 -17.94128906 256.50793457 -3.32128906 256.50793457 C-3.32128906 284.55793457 -3.32128906 312.60793457 -3.32128906 341.50793457 C95.01871094 341.50793457 193.35871094 341.50793457 294.67871094 341.50793457 C294.67871094 243.16793457 294.67871094 144.82793457 294.67871094 43.50793457 C196.33871094 43.50793457 97.99871094 43.50793457 -3.32128906 43.50793457 C-3.32128906 71.55793457 -3.32128906 99.60793457 -3.32128906 128.50793457 C-17.51128906 128.50793457 -31.70128906 128.50793457 -46.32128906 128.50793457 C-46.52183311 105.32058624 -46.52183311 105.32058624 -46.56542969 95.37316895 C-46.59522264 88.60758654 -46.63031974 81.84234517 -46.69848633 75.07702637 C-46.75314619 69.61752289 -46.78278094 64.15838555 -46.79567528 58.69862938 C-46.80485447 56.62437369 -46.82277811 54.55013614 -46.84993935 52.47603798 C-47.03001481 38.14418296 -46.68394958 26.53605861 -37.00878906 15.07043457 C-26.03229867 3.91311238 -15.69790323 -0.11694215 0 0 Z " fill="#CBA7F6" transform="translate(110.3212890625,63.4920654296875)"/>
<path d="M0 0 C3.49801422 1.49854217 5.75157144 3.50459456 8.42926025 6.18875122 C9.75011627 7.50548325 9.75011627 7.50548325 11.09765625 8.84881592 C12.06552278 9.82376013 13.033293 10.79879996 14.00097656 11.77392578 C15.02575442 12.79926791 16.05097312 13.82416958 17.07659912 14.84866333 C19.85762918 17.62911951 22.63244911 20.41569956 25.40620136 23.20341349 C28.30675356 26.11646708 31.21296944 29.02385896 34.11859131 31.93185425 C39.61903401 37.43851344 45.11435852 42.9502511 50.60786605 48.46382797 C56.86265855 54.74097416 63.12313014 61.01244316 69.38408709 67.28343987 C82.26239093 80.18264956 95.13353955 93.0889775 108 106 C106.50145783 109.49801422 104.49540544 111.75157144 101.81124878 114.42926025 C100.93342743 115.30983093 100.05560608 116.19040161 99.15118408 117.09765625 C98.17623987 118.06552278 97.20120004 119.033293 96.22607422 120.00097656 C95.20073209 121.02575442 94.17583042 122.05097312 93.15133667 123.07659912 C90.37088049 125.85762918 87.58430044 128.63244911 84.79658651 131.40620136 C81.88353292 134.30675356 78.97614104 137.21296944 76.06814575 140.11859131 C70.56148656 145.61903401 65.0497489 151.11435852 59.53617203 156.60786605 C53.25902584 162.86265855 46.98755684 169.12313014 40.71656013 175.38408709 C27.81735044 188.26239093 14.9110225 201.13353955 2 214 C-2.17513552 212.08026922 -5.09918108 209.24166089 -8.33203125 206.0390625 C-8.92803635 205.45208588 -9.52404144 204.86510925 -10.1381073 204.26034546 C-11.3922274 203.02070156 -12.64358151 201.77825392 -13.89233398 200.53320312 C-15.81110678 198.62638454 -17.7477424 196.73901206 -19.68554688 194.8515625 C-20.90218592 193.6443813 -22.11772004 192.43608526 -23.33203125 191.2265625 C-23.91523636 190.66288971 -24.49844147 190.09921692 -25.09931946 189.51846313 C-26.69848633 187.90087891 -26.69848633 187.90087891 -29 185 C-22.88081342 160.52325367 5.1596587 147.8403413 23 130 C-43.99 129.67 -110.98 129.34 -180 129 C-180 114.48 -180 99.96 -180 85 C-79.515 84.505 -79.515 84.505 23 84 C5.84 66.84 -11.32 49.68 -29 32 C-28.05087463 28.20349852 -27.86621536 27.49133354 -25.31616211 24.97558594 C-24.75565659 24.41530701 -24.19515106 23.85502808 -23.61766052 23.277771 C-23.01035599 22.68595032 -22.40305145 22.09412964 -21.77734375 21.484375 C-21.15726944 20.86854553 -20.53719513 20.25271606 -19.89833069 19.6182251 C-17.91832095 17.65499365 -15.92813081 15.70245564 -13.9375 13.75 C-12.59241465 12.41996252 -11.24800512 11.08924121 -9.90429688 9.7578125 C-6.61065094 6.49722463 -3.30783661 3.24618812 0 0 Z " fill="#CBA8F6" transform="translate(244,149)"/>
</svg>
