<?xml version="1.0" encoding="UTF-8"?>
<svg version="1.1" xmlns="http://www.w3.org/2000/svg" width="512" height="512">
<path d="M0 0 C2.26822087 0.86393023 3.43072056 1.80327508 5.14007568 3.51475525 C5.72037537 4.08882614 6.30067505 4.66289703 6.89855957 5.25436401 C7.81910126 6.18872032 7.81910126 6.18872032 8.75823975 7.14195251 C9.39626526 7.77947952 10.03429077 8.41700653 10.69165039 9.07385254 C12.0366272 10.4211676 13.37791741 11.77217155 14.71575928 13.12657166 C16.77129258 15.205757 18.83988117 17.27124486 20.9105835 19.33531189 C22.21476422 20.64506732 23.51817665 21.95558832 24.82073975 23.26695251 C25.44253113 23.88783249 26.06432251 24.50871246 26.70495605 25.14840698 C31.02386475 29.53983381 31.02386475 29.53983381 31.02386475 31.77085876 C29.50061584 32.79042818 27.92643774 33.73400521 26.33636475 34.64585876 C19.58195501 38.81180439 14.07840269 43.93751437 8.41009521 49.43589783 C7.29144635 50.51317363 6.14767437 51.56432596 4.996521 52.60679626 C-14.7218581 70.88689359 -27.69057257 101.30269029 -29.15313721 128.00205994 C-29.82202064 164.15107906 -22.28464186 194.50392613 1.02386475 222.77085876 C1.91525146 223.89234314 1.91525146 223.89234314 2.824646 225.03648376 C7.54656541 230.76138845 13.17407858 235.24224879 19.02386475 239.77085876 C19.87851318 240.45277283 20.73316162 241.13468689 21.6137085 241.83726501 C47.76151081 261.92978679 81.62618696 269.29651333 113.94573975 265.49351501 C138.78668964 262.18107777 160.7989478 251.62344912 180.02386475 235.77085876 C180.771521 235.17660095 181.51917725 234.58234314 182.28948975 233.97007751 C188.01345283 229.24893474 192.49963605 223.62293666 197.02386475 217.77085876 C197.70577881 216.90460876 198.38769287 216.03835876 199.090271 215.14585876 C209.39986978 201.58803022 215.36436955 187.04334965 220.02386475 170.77085876 C220.38738037 169.50242126 220.750896 168.23398376 221.12542725 166.92710876 C228.39986179 135.65383877 221.7910979 102.3009484 206.02386475 74.77085876 C195.04592039 57.22160968 180.50172821 42.79212319 163.02386475 31.77085876 C164.29717064 28.99125202 165.62214983 26.91342581 167.75775146 24.73057556 C168.30527069 24.16706894 168.85278992 23.60356232 169.41690063 23.02297974 C170.00649567 22.428022 170.5960907 21.83306427 171.20355225 21.22007751 C171.81272491 20.60187637 172.42189758 19.98367523 173.04953003 19.34674072 C174.33625147 18.04554035 175.62577837 16.74710902 176.91790771 15.45127869 C178.897144 13.4600899 180.85696361 11.45101069 182.8168335 9.44078064 C184.0695877 8.17856847 185.32345664 6.91746151 186.57855225 5.65757751 C187.16409882 5.05249863 187.74964539 4.44741974 188.35293579 3.82400513 C190.03118896 2.16416931 190.03118896 2.16416931 193.02386475 -0.22914124 C197.19858674 0.23978334 200.01901318 2.79982047 203.21136475 5.33335876 C203.78580322 5.78372498 204.3602417 6.23409119 204.9520874 6.69810486 C212.70049088 12.8227859 219.68237889 19.19038512 226.02386475 26.77085876 C226.7612085 27.59714783 227.49855225 28.42343689 228.25823975 29.27476501 C259.48547334 65.02696399 270.85628402 111.2788555 267.82171631 157.87486267 C263.81079248 201.12473002 241.47308534 242.0541384 208.8949585 270.46226501 C170.50798267 301.32852721 125.37978017 314.61693923 76.28167725 310.33726501 C32.56797612 305.49923981 -9.20220882 281.97545356 -36.65582275 247.77476501 C-66.02864539 209.74833301 -78.68845202 164.12998039 -73.20245361 116.26255798 C-67.86825576 77.48119733 -49.37859247 44.12868657 -21.97613525 16.77085876 C-21.37672119 16.13664001 -20.77730713 15.50242126 -20.159729 14.84898376 C-16.28383218 10.79099783 -12.15773961 7.14773224 -7.72613525 3.70835876 C-6.730979 2.9336322 -5.73582275 2.15890564 -4.71051025 1.36070251 C-1.97613525 -0.22914124 -1.97613525 -0.22914124 0 0 Z " fill="#CBA8F7" transform="translate(158.97613525390625,116.22914123535156)"/>
<path d="M0 0 C14.52 0 29.04 0 44 0 C44 70.62 44 141.24 44 214 C29.48 214 14.96 214 0 214 C0 143.38 0 72.76 0 0 Z " fill="#CBA8F6" transform="translate(234,64)"/>
<path d="M0 0 C0.66 0.33 1.32 0.66 2 1 C-5.26 8.26 -12.52 15.52 -20 23 C-20 20 -20 20 -18.42578125 18.1328125 C-17.72839844 17.47023437 -17.03101562 16.80765625 -16.3125 16.125 C-15.57773438 15.41730469 -14.84296875 14.70960938 -14.0859375 13.98046875 C-13.05339844 13.00013672 -13.05339844 13.00013672 -12 12 C-11.154375 11.154375 -10.30875 10.30875 -9.4375 9.4375 C-6.29166667 6.29166667 -3.14583333 3.14583333 0 0 Z " fill="#D2C9F7" transform="translate(145,125)"/>
</svg>
