<?xml version="1.0" encoding="UTF-8"?>
<svg version="1.1" xmlns="http://www.w3.org/2000/svg" width="512" height="512">
<path d="M0 0 C0.77214844 0.00902344 1.54429687 0.01804688 2.33984375 0.02734375 C2.90832031 0.03894531 3.47679687 0.05054688 4.0625 0.0625 C2.9178125 1.5784375 2.9178125 1.5784375 1.75 3.125 C1.20214844 3.85976562 0.65429688 4.59453125 0.08984375 5.3515625 C-0.98186658 6.78463951 -2.05505806 8.21666668 -3.14013672 9.63964844 C-34.24129344 50.42689588 -49.24749561 100.53010314 -42.75 151.75 C-35.70858739 201.792503 -10.21638609 248.76417563 30.453125 279.4140625 C31.65358939 280.30048955 32.85669621 281.1833499 34.0625 282.0625 C34.63806641 282.48241211 35.21363281 282.90232422 35.80664062 283.33496094 C68.8998979 307.12422164 106.27443262 317.14177836 146.5 319.1875 C148.11786768 319.27419758 149.73570655 319.36143446 151.35351562 319.44921875 C155.25620784 319.65983578 159.15921156 319.8632513 163.0625 320.0625 C149.10823825 336.55254581 133.04100116 349.70064608 114.0625 360.0625 C113.13800049 360.57006836 113.13800049 360.57006836 112.19482422 361.08789062 C67.33837205 385.37981347 14.46800619 390.68896792 -34.52734375 376.7265625 C-63.9958503 367.88653238 -90.65138695 352.23934951 -112.9375 331.0625 C-113.43749512 330.58973633 -113.93749023 330.11697266 -114.45263672 329.62988281 C-147.08478698 298.57526733 -170.90601233 252.55861278 -172.09863281 206.89160156 C-172.11817288 205.4121722 -172.13193393 203.93265787 -172.140625 202.453125 C-172.14763931 201.6525769 -172.15465363 200.85202881 -172.16188049 200.02722168 C-172.17930225 197.45559004 -172.18573332 194.8841885 -172.1875 192.3125 C-172.18817474 191.43501099 -172.18884949 190.55752197 -172.18954468 189.65344238 C-172.17392721 176.89265655 -171.82824475 164.54448547 -168.9375 152.0625 C-168.77121094 151.30275879 -168.60492188 150.54301758 -168.43359375 149.76025391 C-162.45552318 122.94196512 -150.98966636 96.68826065 -133.9375 75.0625 C-133.20015625 74.11632812 -132.4628125 73.17015625 -131.703125 72.1953125 C-123.92405847 62.45768667 -115.65095284 52.9137883 -105.9375 45.0625 C-104.93332031 44.23234375 -103.92914063 43.4021875 -102.89453125 42.546875 C-94.36518713 35.59398047 -85.43569898 29.60728394 -75.9375 24.0625 C-74.96635254 23.48653076 -74.96635254 23.48653076 -73.97558594 22.89892578 C-52.87515515 10.52261007 -24.82646656 -0.38194564 0 0 Z " fill="#CBA7F7" transform="translate(236.9375,63.9375)"/>
<path d="M0 0 C0.66 0.33 1.32 0.66 2 1 C-6.25 9.25 -14.5 17.5 -23 26 C-23 22.55976047 -22.6780229 22.27885862 -20.4375 19.890625 C-19.89134033 19.3037793 -19.34518066 18.71693359 -18.7824707 18.11230469 C-18.19425537 17.49774414 -17.60604004 16.88318359 -17 16.25 C-16.40856201 15.62254883 -15.81712402 14.99509766 -15.20776367 14.34863281 C-11.02361818 9.95388171 -6.67102807 5.87413352 -2 2 C-1.34 1.34 -0.68 0.68 0 0 Z " fill="#D4CEF7" transform="translate(133,107)"/>
</svg>
